<?xml version="1.0" standalone="no"?>
<!DOCTYPE svg PUBLIC "-//W3C//DTD SVG 20010904//EN"
 "http://www.w3.org/TR/2001/REC-SVG-20010904/DTD/svg10.dtd">
<svg version="1.0" xmlns="http://www.w3.org/2000/svg"
 width="512.000000pt" height="512.000000pt" viewBox="0 0 512.000000 512.000000"
 preserveAspectRatio="xMidYMid meet">

<g transform="translate(0.000000,512.000000) scale(0.100000,-0.100000)"
fill="#000000" stroke="none">
<path d="M1556 4325 c-30 -10 -101 -75 -276 -250 l-236 -235 -39 40 c-121 124
-310 76 -323 -83 -7 -88 7 -112 136 -239 105 -104 123 -118 175 -133 54 -15
61 -15 110 0 47 16 79 44 350 314 164 163 307 313 318 333 11 21 22 57 25 80
15 117 -122 216 -240 173z"/>
<path d="M2260 4019 c-62 -25 -102 -88 -102 -160 1 -59 21 -100 69 -136 l36
-28 1001 -3 c551 -2 1016 0 1034 3 48 9 119 78 133 128 18 69 -13 146 -76 182
l-42 25 -1014 -1 c-649 0 -1023 -4 -1039 -10z"/>
<path d="M1520 2962 c-25 -16 -141 -127 -259 -245 l-215 -216 -37 34 c-51 46
-91 65 -147 71 -100 11 -182 -69 -182 -178 0 -69 19 -99 133 -215 81 -83 111
-107 154 -123 67 -25 89 -25 155 0 47 17 87 54 344 312 161 161 300 309 309
328 25 49 25 136 0 179 -26 44 -85 74 -154 79 -49 3 -62 0 -101 -26z"/>
<path d="M2270 2674 c-96 -42 -140 -147 -96 -232 18 -35 69 -80 99 -87 12 -3
479 -4 1038 -3 l1016 3 35 27 c50 38 82 106 73 158 -9 56 -43 101 -95 128
l-44 22 -996 0 c-866 -1 -1000 -3 -1030 -16z"/>
<path d="M1520 1682 c-25 -16 -141 -127 -259 -245 l-215 -216 -37 34 c-51 46
-91 65 -147 71 -100 11 -182 -69 -182 -178 0 -69 19 -99 133 -215 81 -83 111
-107 154 -123 67 -25 89 -25 155 0 47 17 87 54 344 312 161 161 300 309 309
328 25 49 25 136 0 179 -26 44 -85 74 -154 79 -49 3 -62 0 -101 -26z"/>
<path d="M2252 1323 c-41 -20 -82 -71 -91 -115 -18 -83 35 -175 114 -197 28
-8 335 -11 1025 -11 936 0 987 1 1025 19 106 49 141 159 80 252 -48 73 24 69
-1107 69 -917 0 -1016 -2 -1046 -17z"/>
</g>
</svg>
